<svg width="50" height="47" viewBox="0 0 50 47" fill="none" xmlns="http://www.w3.org/2000/svg">
    <path fill-rule="evenodd" clip-rule="evenodd"
          d="M24.0108 0.972411C22.725 2.26896 22.725 4.37108 24.0108 5.66762L41.4368 23.2401L24.0108 40.8126C22.725 42.1092 22.725 44.2113 24.0108 45.5078C25.2965 46.8044 27.3811 46.8044 28.6668 45.5078L48.4209 25.5877C49.7067 24.2912 49.7067 22.1891 48.4209 20.8925L28.6668 0.972411C27.3811 -0.324137 25.2965 -0.324137 24.0108 0.972411Z"/>
    <path fill-rule="evenodd" clip-rule="evenodd"
          d="M46.6416 23.2401C46.6416 21.4065 45.1676 19.9201 43.3493 19.9201H3.29234C1.47403 19.9201 -1.03116e-05 21.4065 -1.03116e-05 23.2401C-1.03116e-05 25.0737 1.47403 26.5601 3.29234 26.5601H43.3493C45.1676 26.5601 46.6416 25.0737 46.6416 23.2401Z"/>
</svg>
