<svg width="36" height="35" viewBox="0 0 36 35" fill="none" xmlns="http://www.w3.org/2000/svg">
    <path d="M17.5851 0C7.87404 0 0 8.03906 0 17.9453C0 25.875 5.04001 32.5937 12.0269 34.9687C12.1249 34.9899 12.225 35.0004 12.3253 35C12.9768 35 13.2281 34.5234 13.2281 34.1094C13.2281 33.6797 13.2124 32.5547 13.2045 31.0547C12.6228 31.1904 12.0277 31.2611 11.4303 31.2656C8.04675 31.2656 7.2774 28.6484 7.2774 28.6484C6.47665 26.5781 5.32263 26.0234 5.32263 26.0234C3.79178 24.9531 5.31478 24.9219 5.43253 24.9219H5.44039C7.20674 25.0781 8.1331 26.7812 8.1331 26.7812C9.01236 28.3125 10.1899 28.7422 11.2419 28.7422C11.9375 28.7283 12.6223 28.5686 13.2516 28.2734C13.4086 27.1172 13.864 26.3281 14.3664 25.875C10.4647 25.4219 6.35889 23.8828 6.35889 17.0078C6.35889 15.0469 7.04188 13.4453 8.1645 12.1953C7.98394 11.7422 7.37945 9.91406 8.33721 7.44531C8.46568 7.41472 8.59772 7.40158 8.72974 7.40625C9.36563 7.40625 10.8023 7.64843 13.1731 9.28906C16.0539 8.48696 19.1006 8.48696 21.9814 9.28906C24.3522 7.64843 25.7888 7.40625 26.4247 7.40625C26.5567 7.40158 26.6888 7.41472 26.8173 7.44531C27.775 9.91406 27.1705 11.7422 26.99 12.1953C28.1126 13.4531 28.7956 15.0547 28.7956 17.0078C28.7956 23.8984 24.6819 25.4141 20.7645 25.8594C21.3926 26.4141 21.9578 27.5078 21.9578 29.1797C21.9578 31.5781 21.9343 33.5156 21.9343 34.1015C21.9343 34.5234 22.1776 35 22.8292 35C22.9347 35.0004 23.0399 34.99 23.1432 34.9687C30.138 32.5937 35.1702 25.8672 35.1702 17.9453C35.1702 8.03906 27.2961 0 17.5851 0Z"
          fill="url(#paint0_linear_680_2748)"/>
    <defs>
        <linearGradient id="paint0_linear_680_2748" x1="17.5851" y1="0" x2="17.5851" y2="35"
                        gradientUnits="userSpaceOnUse">
            <stop stop-color="#FFE998"/>
            <stop offset="1" stop-color="#57370D"/>
        </linearGradient>
    </defs>
</svg>
