<svg width="36" height="35" viewBox="0 0 36 35" fill="none" xmlns="http://www.w3.org/2000/svg">
<path d="M24.9119 2.91641C26.8535 2.92218 28.7139 3.69231 30.0869 5.05861C31.4598 6.42491 32.2337 8.27636 32.2395 10.2086V24.7914C32.2337 26.7236 31.4598 28.5751 30.0869 29.9414C28.7139 31.3077 26.8535 32.0778 24.9119 32.0836H10.2582C8.31657 32.0778 6.45613 31.3077 5.08319 29.9414C3.71025 28.5751 2.93637 26.7236 2.93058 24.7914V10.2086C2.93637 8.27636 3.71025 6.42491 5.08319 5.05861C6.45613 3.69231 8.31657 2.92218 10.2582 2.91641H24.9119ZM24.9119 0H10.2582C4.61607 0 0 4.59375 0 10.2086V24.7914C0 30.4062 4.61607 35 10.2582 35H24.9119C30.554 35 35.17 30.4062 35.17 24.7914V10.2086C35.17 4.59375 30.554 0 24.9119 0Z" fill="url(#paint0_linear_680_2746)"/>
<path d="M27.11 10.2086C26.6752 10.2086 26.2502 10.0803 25.8888 9.83993C25.5273 9.59957 25.2455 9.25793 25.0792 8.85821C24.9128 8.4585 24.8693 8.01867 24.9541 7.59433C25.0389 7.17 25.2483 6.78023 25.5557 6.4743C25.8631 6.16837 26.2548 5.96003 26.6811 5.87563C27.1075 5.79122 27.5495 5.83454 27.9512 6.00011C28.3528 6.16567 28.6961 6.44605 28.9377 6.80578C29.1792 7.16552 29.3081 7.58845 29.3081 8.02109C29.3087 8.30853 29.2523 8.59327 29.142 8.85894C29.0318 9.12462 28.8699 9.36602 28.6657 9.56927C28.4614 9.77252 28.2189 9.93363 27.9519 10.0433C27.6849 10.1531 27.3988 10.2092 27.11 10.2086Z" fill="url(#paint1_linear_680_2746)"/>
<path d="M17.585 11.6664C18.7444 11.6664 19.8777 12.0085 20.8417 12.6495C21.8057 13.2905 22.5571 14.2016 23.0007 15.2676C23.4444 16.3335 23.5605 17.5065 23.3343 18.6381C23.1081 19.7697 22.5498 20.8091 21.73 21.625C20.9102 22.4408 19.8657 22.9964 18.7286 23.2215C17.5915 23.4466 16.4129 23.3311 15.3418 22.8895C14.2706 22.448 13.3551 21.7003 12.711 20.741C12.0669 19.7816 11.7231 18.6538 11.7231 17.5C11.7247 15.9533 12.3429 14.4705 13.4418 13.3769C14.5408 12.2832 16.0309 11.6681 17.585 11.6664ZM17.585 8.75C15.846 8.75 14.1461 9.26318 12.7002 10.2246C11.2542 11.1861 10.1273 12.5527 9.4618 14.1515C8.79632 15.7504 8.6222 17.5097 8.96146 19.207C9.30072 20.9044 10.1381 22.4635 11.3678 23.6872C12.5974 24.9109 14.1641 25.7443 15.8697 26.0819C17.5753 26.4195 19.3431 26.2462 20.9498 25.5839C22.5564 24.9217 23.9296 23.8002 24.8957 22.3612C25.8619 20.9223 26.3775 19.2306 26.3775 17.5C26.3775 15.1794 25.4512 12.9538 23.8023 11.3128C22.1534 9.67187 19.9169 8.75 17.585 8.75Z" fill="url(#paint2_linear_680_2746)"/>
<defs>
<linearGradient id="paint0_linear_680_2746" x1="17.585" y1="0" x2="17.585" y2="35" gradientUnits="userSpaceOnUse">
<stop stop-color="#FFE998"/>
<stop offset="1" stop-color="#57370D"/>
</linearGradient>
<linearGradient id="paint1_linear_680_2746" x1="17.585" y1="0" x2="17.585" y2="35" gradientUnits="userSpaceOnUse">
<stop stop-color="#FFE998"/>
<stop offset="1" stop-color="#57370D"/>
</linearGradient>
<linearGradient id="paint2_linear_680_2746" x1="17.585" y1="0" x2="17.585" y2="35" gradientUnits="userSpaceOnUse">
<stop stop-color="#FFE998"/>
<stop offset="1" stop-color="#57370D"/>
</linearGradient>
</defs>
</svg>
