<svg width="22" height="21" viewBox="0 0 22 21" fill="none" xmlns="http://www.w3.org/2000/svg">
<path d="M20 10.5C20 10.7761 20.2239 11 20.5 11C20.7761 11 21 10.7761 21 10.5H20ZM10.5 21C10.7761 21 11 20.7761 11 20.5C11 20.2239 10.7761 20 10.5 20V21ZM11.8982 0.246936C11.7312 0.0270159 11.4175 -0.015883 11.1976 0.151119C10.9777 0.318121 10.9348 0.631783 11.1018 0.851704L11.8982 0.246936ZM14 10.4999C14 10.776 14.2239 10.9999 14.5 10.9999C14.7761 10.9999 15 10.776 15 10.4999H14ZM9.1018 20.753C9.2688 20.9729 9.58246 21.0158 9.80238 20.8488C10.0223 20.6818 10.0652 20.3681 9.8982 20.1482L9.1018 20.753ZM9.8982 0.851704C10.0652 0.631783 10.0223 0.318121 9.80238 0.151119C9.58246 -0.015883 9.2688 0.0270159 9.1018 0.246936L9.8982 0.851704ZM1.12964 13.5C0.853498 13.5 0.62964 13.7239 0.62964 14C0.62964 14.2761 0.853498 14.5 1.12964 14.5V13.5ZM10.5 14.5C10.7761 14.5 11 14.2761 11 14C11 13.7239 10.7761 13.5 10.5 13.5V14.5ZM1.12964 6.5C0.853498 6.5 0.62964 6.72386 0.62964 7C0.62964 7.27614 0.853498 7.5 1.12964 7.5V6.5ZM19.8704 7.5C20.1465 7.5 20.3704 7.27614 20.3704 7C20.3704 6.72386 20.1465 6.5 19.8704 6.5V7.5ZM20.3789 16.4174L20.1169 16.8433L20.117 16.8433L20.3789 16.4174ZM20.3337 17.5181L20.39 18.0149L20.3901 18.0149L20.3337 17.5181ZM17.7671 17.809L17.7108 17.3122L17.4407 17.3428L17.3195 17.5862L17.7671 17.809ZM16.6159 20.1213L16.1683 19.8985L16.1683 19.8985L16.6159 20.1213ZM15.5661 19.7873L15.0763 19.8878L15.0763 19.8879L15.5661 19.7873ZM14.3108 13.6713L13.821 13.7718L13.821 13.7718L14.3108 13.6713ZM15.061 13.146L14.799 13.5718L14.799 13.5719L15.061 13.146ZM21 10.5C21 4.70101 16.2989 0 10.5 0V1C15.7467 1 20 5.25329 20 10.5H21ZM10.5 0C4.70101 0 0 4.70101 0 10.5H1C1 5.25329 5.25329 1 10.5 1V0ZM0 10.5C0 16.2989 4.70101 21 10.5 21V20C5.25329 20 1 15.7467 1 10.5H0ZM11.5 0.54932C11.1018 0.851704 11.1017 0.851576 11.1016 0.851464C11.1016 0.851447 11.1015 0.851349 11.1015 0.851314C11.1014 0.851244 11.1014 0.851233 11.1015 0.851283C11.1016 0.851381 11.1018 0.851717 11.1022 0.852291C11.1031 0.853438 11.1047 0.855535 11.1069 0.858574C11.1114 0.864651 11.1187 0.874495 11.1285 0.888047C11.1481 0.915153 11.1779 0.957083 11.2164 1.01337C11.2935 1.12597 11.4057 1.29591 11.5411 1.51948C11.8122 1.9668 12.1762 2.62776 12.5409 3.47277C13.2708 5.16365 14 7.5834 14 10.4999H15C15 7.41644 14.2292 4.8609 13.4591 3.07648C13.0738 2.18384 12.6878 1.48215 12.3964 1.00123C12.2506 0.760681 12.1283 0.575104 12.0414 0.448212C11.9979 0.384757 11.9633 0.335951 11.9389 0.302257C11.9267 0.28541 11.9171 0.272337 11.9103 0.263099C11.9069 0.258479 11.9041 0.254818 11.9021 0.252122C11.9011 0.250774 11.9003 0.249667 11.8996 0.248802C11.8993 0.24837 11.899 0.247998 11.8988 0.247687C11.8987 0.247532 11.8985 0.247344 11.8985 0.247266C11.8983 0.247094 11.8982 0.246936 11.5 0.54932ZM9.5 20.4506C9.8982 20.1482 9.8983 20.1483 9.89839 20.1485C9.8984 20.1485 9.89847 20.1486 9.8985 20.1486C9.89855 20.1487 9.89856 20.1487 9.89852 20.1486C9.89845 20.1485 9.8982 20.1482 9.89777 20.1476C9.8969 20.1465 9.89534 20.1444 9.89308 20.1413C9.88858 20.1353 9.88134 20.1254 9.87154 20.1119C9.85195 20.0848 9.82215 20.0428 9.78359 19.9865C9.70645 19.874 9.59435 19.704 9.45887 19.4804C9.1878 19.0331 8.82379 18.3721 8.45907 17.5271C7.72925 15.8362 7 13.4164 7 10.4999H6C6 13.5834 6.77075 16.1389 7.54093 17.9234C7.92621 18.816 8.3122 19.5177 8.60363 19.9987C8.7494 20.2392 8.87167 20.4248 8.9586 20.5517C9.00207 20.6152 9.03672 20.664 9.06107 20.6977C9.07325 20.7145 9.08286 20.7276 9.0897 20.7368C9.09313 20.7414 9.09586 20.7451 9.09789 20.7478C9.0989 20.7491 9.09973 20.7502 9.10038 20.7511C9.10071 20.7515 9.10099 20.7519 9.10123 20.7522C9.10134 20.7524 9.10149 20.7526 9.10155 20.7526C9.10168 20.7528 9.1018 20.753 9.5 20.4506ZM7 10.4999C7 7.5834 7.72925 5.16365 8.45906 3.47277C8.82379 2.62776 9.18779 1.9668 9.45886 1.51948C9.59435 1.29591 9.70645 1.12597 9.78358 1.01337C9.82215 0.957083 9.85195 0.915153 9.87154 0.888047C9.88134 0.874495 9.88858 0.864651 9.89308 0.858574C9.89533 0.855535 9.8969 0.853438 9.89776 0.852291C9.89819 0.851717 9.89845 0.851381 9.89852 0.851283C9.89856 0.851233 9.89855 0.851244 9.8985 0.851314C9.89847 0.851349 9.8984 0.851447 9.89838 0.851464C9.8983 0.851576 9.8982 0.851704 9.5 0.54932C9.1018 0.246936 9.10168 0.247094 9.10155 0.247266C9.10149 0.247344 9.10135 0.247532 9.10123 0.247687C9.10099 0.247998 9.10071 0.24837 9.10039 0.248802C9.09973 0.249667 9.0989 0.250774 9.09789 0.252122C9.09587 0.254818 9.09313 0.258479 9.08971 0.263099C9.08286 0.272337 9.07325 0.28541 9.06108 0.302257C9.03672 0.335951 9.00207 0.384757 8.9586 0.448212C8.87167 0.575104 8.7494 0.760681 8.60364 1.00123C8.31221 1.48215 7.92621 2.18384 7.54094 3.07648C6.77075 4.8609 6 7.41644 6 10.4999H7ZM1.12964 14.5H10.5V13.5H1.12964V14.5ZM1.12964 7.5H19.8704V6.5H1.12964V7.5ZM20.117 16.8433C20.2031 16.8962 20.235 16.9824 20.2326 17.0395C20.2315 17.0659 20.2242 17.0646 20.2365 17.0495C20.243 17.0414 20.2524 17.0332 20.2635 17.0272C20.2746 17.0212 20.2809 17.0209 20.2773 17.0213L20.3901 18.0149C20.9462 17.9518 21.2148 17.495 21.2318 17.0805C21.2483 16.6776 21.0486 16.2423 20.6408 15.9915L20.117 16.8433ZM20.2774 17.0213L17.7108 17.3122L17.8234 18.3058L20.39 18.0149L20.2774 17.0213ZM17.3195 17.5862L16.1683 19.8985L17.0635 20.3441L18.2147 18.0318L17.3195 17.5862ZM16.1683 19.8985C16.1667 19.9017 16.1691 19.8959 16.1786 19.8875C16.1881 19.8791 16.199 19.8731 16.2088 19.8697C16.2272 19.8633 16.226 19.8706 16.2008 19.8626C16.1463 19.8453 16.0762 19.7858 16.0559 19.6867L15.0763 19.8879C15.1726 20.3567 15.5133 20.6933 15.8976 20.8156C16.2929 20.9413 16.8141 20.8452 17.0635 20.3441L16.1683 19.8985ZM16.0559 19.6868L14.8006 13.5708L13.821 13.7718L15.0763 19.8878L16.0559 19.6868ZM14.8006 13.5708C14.7966 13.5511 14.7963 13.5377 14.7968 13.53C14.7972 13.5223 14.7984 13.5194 14.7981 13.5202C14.7978 13.521 14.7965 13.5243 14.7931 13.5288C14.7897 13.5332 14.7851 13.5379 14.7793 13.5419C14.7735 13.546 14.7675 13.5488 14.7622 13.5504C14.7568 13.5521 14.7533 13.5522 14.7524 13.5522C14.7515 13.5522 14.7546 13.5521 14.762 13.5543C14.7693 13.5565 14.7819 13.5613 14.799 13.5718L15.323 12.7202C14.9673 12.5012 14.5375 12.4904 14.2057 12.7228C13.8739 12.9551 13.737 13.3626 13.821 13.7718L14.8006 13.5708ZM14.799 13.5719L20.1169 16.8433L20.6409 15.9915L15.323 12.7201L14.799 13.5719Z" fill="url(#paint0_linear_343_13195)"/>
<defs>
<linearGradient id="paint0_linear_343_13195" x1="10.6164" y1="0.5" x2="10.6164" y2="20.5" gradientUnits="userSpaceOnUse">
<stop stop-color="#FFE998"/>
<stop offset="1" stop-color="#57370D"/>
</linearGradient>
</defs>
</svg>
