<svg width="36" height="35" viewBox="0 0 36 35" fill="none" xmlns="http://www.w3.org/2000/svg">
<path d="M32.3573 0H3.00516C1.40131 0 0 1.14844 0 2.72578V32.0008C0 33.5867 1.40131 35 3.00516 35H32.3487C33.9611 35 35.1701 33.5773 35.1701 32.0008V2.72578C35.1795 1.14844 33.9611 0 32.3573 0ZM10.9019 29.1742H5.86352V13.5844H10.9019V29.1742ZM8.55701 11.2141H8.5209C6.90841 11.2141 5.8643 10.0195 5.8643 8.52422C5.8643 7.00156 6.93589 5.83516 8.58449 5.83516C10.2331 5.83516 11.2419 6.99297 11.278 8.52422C11.2772 10.0195 10.2331 11.2141 8.55701 11.2141ZM29.316 29.1742H24.2776V20.65C24.2776 18.6078 23.5443 17.2125 21.7215 17.2125C20.3288 17.2125 19.5045 18.15 19.1379 19.0633C19.0005 19.3914 18.9636 19.8383 18.9636 20.2945V29.1742H13.9252V13.5844H18.9636V15.7539C19.6968 14.7148 20.8422 13.2195 23.5075 13.2195C26.8149 13.2195 29.3168 15.3891 29.3168 20.0664L29.316 29.1742Z" fill="url(#paint0_linear_680_2745)"/>
<defs>
<linearGradient id="paint0_linear_680_2745" x1="17.5851" y1="0" x2="17.5851" y2="35" gradientUnits="userSpaceOnUse">
<stop stop-color="#FFE998"/>
<stop offset="1" stop-color="#57370D"/>
</linearGradient>
</defs>
</svg>
