<svg width="282" height="330" viewBox="0 0 282 330" fill="none" xmlns="http://www.w3.org/2000/svg">
<path d="M90.0452 186.391L133.4 131.931V135.83L33.6008 0.165039H53.0928L144.316 124.134H139.637L229.691 0.165039H249.183L149.383 135.83V131.931L262.036 275.951H244.977L137.298 141.677H145.485L109.927 186.391H90.0452Z" fill="#EBE4D4"/>
<path d="M90.756 63.3192L81.5512 52.7633H200.063L189.707 63.3192H90.756Z" fill="#EBE4D4"/>
<path d="M0.457031 329.189V326.46C7.47416 321.782 13.3218 315.544 17.9999 307.747C22.9378 299.691 25.4068 291.374 25.4068 282.798V58.2492H49.1871C65.3005 88.6568 81.414 118.934 97.5274 149.082C113.901 179.23 130.534 209.248 147.427 239.135C164.58 209.248 181.213 179.23 197.327 149.082C213.7 118.934 230.203 88.6568 246.836 58.2492H281.922V61.368C277.504 63.707 274.905 67.0856 274.125 71.5038C273.346 75.6621 272.956 79.9504 272.956 84.3686V303.459C272.956 307.877 273.346 312.295 274.125 316.714C275.165 320.872 277.764 324.121 281.922 326.46V329.189H233.972V326.46C238.13 324.121 240.599 320.872 241.379 316.714C242.418 312.295 242.938 307.877 242.938 303.459V69.9445C227.344 98.5328 211.751 127.121 196.157 155.709C180.563 184.038 164.71 212.366 148.597 240.695C153.794 249.531 158.992 259.407 164.19 270.323C169.648 280.978 172.377 291.504 172.377 301.9C172.377 310.476 169.518 317.363 163.8 322.561C158.083 327.499 151.066 329.968 142.749 329.968C135.212 329.968 129.234 327.889 124.816 323.731C120.398 319.573 118.189 313.725 118.189 306.188C118.189 298.911 119.878 292.024 123.257 285.526C126.635 278.769 129.884 272.142 133.003 265.645L27.356 72.2835V282.798C27.356 290.854 29.825 299.041 34.763 307.358C39.9609 315.674 45.8085 322.042 52.3059 326.46V329.189H0.457031ZM135.342 326.46C140.28 326.46 144.178 324.381 147.037 320.222C149.896 315.804 151.325 311.386 151.325 306.968C151.325 304.109 150.676 300.99 149.376 297.611C148.077 293.973 146.517 290.334 144.698 286.696C143.139 282.798 141.32 279.289 139.24 276.17C137.161 272.792 135.342 269.933 133.783 267.594C131.703 273.831 128.845 279.809 125.206 285.526C121.827 290.984 120.138 297.352 120.138 304.629C120.138 309.307 121.178 314.115 123.257 319.053C125.336 323.991 129.364 326.46 135.342 326.46Z" fill="url(#paint0_linear_561_9213)"/>
<defs>
<linearGradient id="paint0_linear_561_9213" x1="141.19" y1="0.165039" x2="141.19" y2="329.968" gradientUnits="userSpaceOnUse">
<stop stop-color="#FFE998"/>
<stop offset="1" stop-color="#57370D"/>
</linearGradient>
</defs>
</svg>
