<svg width="919" height="107" viewBox="0 0 919 107" fill="none" xmlns="http://www.w3.org/2000/svg">
<mask id="path-1-inside-1_627_9231" fill="white">
<path fill-rule="evenodd" clip-rule="evenodd" d="M14.9913 0H903.561V0.000379562C903.561 8.37394 910.273 15.1621 918.553 15.1624V90.9722C910.273 90.9725 903.561 97.7606 903.561 106.134L14.9913 106.134C14.9911 97.7608 8.27945 90.973 0 90.9722V15.1624C8.27958 15.1616 14.9913 8.37362 14.9913 0.000379562V0Z"/>
</mask>
<path d="M903.561 0H905.561V-2H903.561V0ZM14.9913 0V-2H12.9913V0H14.9913ZM918.553 15.1624H920.553V13.1624L918.553 13.1624L918.553 15.1624ZM918.553 90.9722L918.553 92.9722L920.553 92.9722V90.9722H918.553ZM903.561 106.134L903.561 108.134L905.561 108.134V106.134H903.561ZM14.9913 106.134L12.9913 106.134L12.9913 108.134L14.9913 108.134L14.9913 106.134ZM0 90.9722H-2V92.972L-0.000189826 92.9722L0 90.9722ZM0 15.1624L-0.000190284 13.1624L-2 13.1625V15.1624H0ZM903.561 0V-2H14.9913V0V2H903.561V0ZM903.561 0.000379562H905.561V0H903.561H901.561V0.000379562H903.561ZM918.553 15.1624L918.553 13.1624C911.398 13.1621 905.561 7.29062 905.561 0.000379562H903.561H901.561C901.561 9.45726 909.147 17.1621 918.553 17.1624L918.553 15.1624ZM918.553 90.9722H920.553V15.1624H918.553H916.553V90.9722H918.553ZM903.561 106.134H905.561C905.561 98.844 911.398 92.9725 918.553 92.9722L918.553 90.9722L918.553 88.9722C909.147 88.9725 901.561 96.6773 901.561 106.134H903.561ZM14.9913 106.134L14.9913 108.134L903.561 108.134L903.561 106.134L903.561 104.134L14.9913 104.134L14.9913 106.134ZM0 90.9722L-0.000189826 92.9722C7.15369 92.9729 12.9911 98.8441 12.9913 106.134L14.9913 106.134L16.9913 106.134C16.991 96.6775 9.40522 88.9731 0.000189826 88.9722L0 90.9722ZM0 15.1624H-2V90.9722H0H2V15.1624H0ZM14.9913 0.000379562H12.9913C12.9913 7.29034 7.15379 13.1617 -0.000190284 13.1624L0 15.1624L0.000190284 17.1624C9.40536 17.1615 16.9913 9.4569 16.9913 0.000379562H14.9913ZM14.9913 0H12.9913V0.000379562H14.9913H16.9913V0H14.9913Z" fill="url(#paint0_linear_627_9231)" mask="url(#path-1-inside-1_627_9231)"/>
<defs>
<linearGradient id="paint0_linear_627_9231" x1="459.276" y1="0" x2="459.276" y2="106.134" gradientUnits="userSpaceOnUse">
<stop stop-color="#FFE998"/>
<stop offset="1" stop-color="#57370D"/>
</linearGradient>
</defs>
</svg>
