<svg width="897" height="89" viewBox="0 0 897 89" fill="none" xmlns="http://www.w3.org/2000/svg">
<mask id="path-1-inside-1_627_9222" fill="white">
<path fill-rule="evenodd" clip-rule="evenodd" d="M15.3913 0.976562H882.301C882.301 7.84703 888.85 13.4165 896.928 13.4165V75.6195C888.85 75.6195 882.301 81.1894 882.301 88.0601C882.301 88.0603 882.301 88.0605 882.301 88.0607H15.3913V88.0601C15.3913 81.1894 8.84242 75.6195 0.763999 75.6195H0.763672V13.4165H0.763999C8.84218 13.4165 15.3909 7.84703 15.3913 0.976562Z"/>
</mask>
<path d="M882.301 0.976562L883.301 0.9765L883.301 -0.0234375H882.301V0.976562ZM15.3913 0.976562V-0.0234375H14.3913L14.3913 0.976504L15.3913 0.976562ZM896.928 13.4165H897.928V12.4165H896.928V13.4165ZM896.928 75.6195V76.6195H897.928V75.6195H896.928ZM882.301 88.0607V89.0607H883.301V88.0607H882.301ZM15.3913 88.0607H14.3913V89.0607H15.3913V88.0607ZM0.763672 75.6195H-0.236328V76.6195H0.763672V75.6195ZM0.763672 13.4165V12.4165H-0.236328V13.4165H0.763672ZM882.301 0.976562V-0.0234375H15.3913V0.976562V1.97656H882.301V0.976562ZM896.928 13.4165V12.4165C889.244 12.4165 883.301 7.14901 883.301 0.9765L882.301 0.976562L881.301 0.976625C881.301 8.54504 888.456 14.4165 896.928 14.4165V13.4165ZM896.928 75.6195H897.928V13.4165H896.928H895.928V75.6195H896.928ZM882.301 88.0601H883.301C883.301 81.8873 889.244 76.6195 896.928 76.6195V75.6195V74.6195C888.455 74.6195 881.301 80.4914 881.301 88.0601H882.301ZM882.301 88.0607H883.301C883.301 88.0607 883.301 88.0607 883.301 88.0607C883.301 88.0607 883.301 88.0607 883.301 88.0607C883.301 88.0607 883.301 88.0607 883.301 88.0607C883.301 88.0607 883.301 88.0607 883.301 88.0607C883.301 88.0607 883.301 88.0607 883.301 88.0607C883.301 88.0607 883.301 88.0607 883.301 88.0607C883.301 88.0607 883.301 88.0607 883.301 88.0607C883.301 88.0607 883.301 88.0607 883.301 88.0607C883.301 88.0607 883.301 88.0607 883.301 88.0607C883.301 88.0607 883.301 88.0607 883.301 88.0607C883.301 88.0607 883.301 88.0607 883.301 88.0607C883.301 88.0607 883.301 88.0607 883.301 88.0607C883.301 88.0607 883.301 88.0607 883.301 88.0607C883.301 88.0607 883.301 88.0607 883.301 88.0607C883.301 88.0607 883.301 88.0607 883.301 88.0607C883.301 88.0607 883.301 88.0607 883.301 88.0607C883.301 88.0607 883.301 88.0607 883.301 88.0607C883.301 88.0607 883.301 88.0607 883.301 88.0607C883.301 88.0607 883.301 88.0607 883.301 88.0607C883.301 88.0607 883.301 88.0607 883.301 88.0607C883.301 88.0607 883.301 88.0607 883.301 88.0607C883.301 88.0607 883.301 88.0607 883.301 88.0607C883.301 88.0607 883.301 88.0607 883.301 88.0607C883.301 88.0607 883.301 88.0607 883.301 88.0607C883.301 88.0607 883.301 88.0607 883.301 88.0607C883.301 88.0607 883.301 88.0607 883.301 88.0607C883.301 88.0607 883.301 88.0607 883.301 88.0607C883.301 88.0607 883.301 88.0607 883.301 88.0607C883.301 88.0607 883.301 88.0607 883.301 88.0607C883.301 88.0607 883.301 88.0607 883.301 88.0607C883.301 88.0607 883.301 88.0607 883.301 88.0607C883.301 88.0607 883.301 88.0607 883.301 88.0607C883.301 88.0607 883.301 88.0607 883.301 88.0607C883.301 88.0607 883.301 88.0607 883.301 88.0607C883.301 88.0607 883.301 88.0607 883.301 88.0607C883.301 88.0607 883.301 88.0607 883.301 88.0607C883.301 88.0607 883.301 88.0607 883.301 88.0607C883.301 88.0607 883.301 88.0607 883.301 88.0607C883.301 88.0607 883.301 88.0607 883.301 88.0607C883.301 88.0607 883.301 88.0607 883.301 88.0607C883.301 88.0607 883.301 88.0607 883.301 88.0607C883.301 88.0607 883.301 88.0607 883.301 88.0607C883.301 88.0607 883.301 88.0607 883.301 88.0607C883.301 88.0607 883.301 88.0607 883.301 88.0607C883.301 88.0607 883.301 88.0607 883.301 88.0607C883.301 88.0607 883.301 88.0607 883.301 88.0607C883.301 88.0607 883.301 88.0607 883.301 88.0607C883.301 88.0607 883.301 88.0607 883.301 88.0607C883.301 88.0607 883.301 88.0607 883.301 88.0607C883.301 88.0607 883.301 88.0607 883.301 88.0607C883.301 88.0607 883.301 88.0607 883.301 88.0607C883.301 88.0607 883.301 88.0607 883.301 88.0607C883.301 88.0607 883.301 88.0607 883.301 88.0607C883.301 88.0607 883.301 88.0607 883.301 88.0607C883.301 88.0607 883.301 88.0607 883.301 88.0607C883.301 88.0607 883.301 88.0607 883.301 88.0607C883.301 88.0607 883.301 88.0607 883.301 88.0607C883.301 88.0607 883.301 88.0607 883.301 88.0607C883.301 88.0607 883.301 88.0607 883.301 88.0607C883.301 88.0607 883.301 88.0607 883.301 88.0607C883.301 88.0607 883.301 88.0607 883.301 88.0607C883.301 88.0607 883.301 88.0607 883.301 88.0607C883.301 88.0607 883.301 88.0607 883.301 88.0607C883.301 88.0607 883.301 88.0607 883.301 88.0607C883.301 88.0607 883.301 88.0607 883.301 88.0607C883.301 88.0607 883.301 88.0607 883.301 88.0606C883.301 88.0606 883.301 88.0606 883.301 88.0606C883.301 88.0606 883.301 88.0606 883.301 88.0606C883.301 88.0606 883.301 88.0606 883.301 88.0606C883.301 88.0606 883.301 88.0606 883.301 88.0606C883.301 88.0606 883.301 88.0606 883.301 88.0606C883.301 88.0606 883.301 88.0606 883.301 88.0606C883.301 88.0606 883.301 88.0606 883.301 88.0606C883.301 88.0606 883.301 88.0606 883.301 88.0606C883.301 88.0606 883.301 88.0606 883.301 88.0606C883.301 88.0606 883.301 88.0606 883.301 88.0606C883.301 88.0606 883.301 88.0606 883.301 88.0606C883.301 88.0606 883.301 88.0606 883.301 88.0606C883.301 88.0606 883.301 88.0606 883.301 88.0606C883.301 88.0606 883.301 88.0606 883.301 88.0606C883.301 88.0606 883.301 88.0606 883.301 88.0606C883.301 88.0606 883.301 88.0606 883.301 88.0606C883.301 88.0606 883.301 88.0606 883.301 88.0606C883.301 88.0606 883.301 88.0606 883.301 88.0606C883.301 88.0606 883.301 88.0606 883.301 88.0606C883.301 88.0606 883.301 88.0606 883.301 88.0606C883.301 88.0606 883.301 88.0606 883.301 88.0606C883.301 88.0606 883.301 88.0606 883.301 88.0606C883.301 88.0606 883.301 88.0606 883.301 88.0606C883.301 88.0606 883.301 88.0606 883.301 88.0606C883.301 88.0606 883.301 88.0606 883.301 88.0606C883.301 88.0606 883.301 88.0606 883.301 88.0606C883.301 88.0606 883.301 88.0606 883.301 88.0606C883.301 88.0606 883.301 88.0606 883.301 88.0606C883.301 88.0606 883.301 88.0606 883.301 88.0606C883.301 88.0606 883.301 88.0606 883.301 88.0606C883.301 88.0606 883.301 88.0606 883.301 88.0606C883.301 88.0606 883.301 88.0606 883.301 88.0606C883.301 88.0606 883.301 88.0606 883.301 88.0606C883.301 88.0606 883.301 88.0606 883.301 88.0606C883.301 88.0606 883.301 88.0606 883.301 88.0606C883.301 88.0606 883.301 88.0606 883.301 88.0606C883.301 88.0606 883.301 88.0606 883.301 88.0606C883.301 88.0606 883.301 88.0606 883.301 88.0606C883.301 88.0606 883.301 88.0606 883.301 88.0606C883.301 88.0606 883.301 88.0606 883.301 88.0606C883.301 88.0606 883.301 88.0606 883.301 88.0606C883.301 88.0606 883.301 88.0606 883.301 88.0606C883.301 88.0606 883.301 88.0606 883.301 88.0606C883.301 88.0606 883.301 88.0606 883.301 88.0606C883.301 88.0606 883.301 88.0606 883.301 88.0606C883.301 88.0606 883.301 88.0606 883.301 88.0606C883.301 88.0606 883.301 88.0606 883.301 88.0606C883.301 88.0606 883.301 88.0606 883.301 88.0606C883.301 88.0606 883.301 88.0606 883.301 88.0606C883.301 88.0606 883.301 88.0606 883.301 88.0606C883.301 88.0606 883.301 88.0606 883.301 88.0606C883.301 88.0606 883.301 88.0606 883.301 88.0606C883.301 88.0606 883.301 88.0606 883.301 88.0606C883.301 88.0606 883.301 88.0606 883.301 88.0606C883.301 88.0606 883.301 88.0606 883.301 88.0606C883.301 88.0606 883.301 88.0606 883.301 88.0606C883.301 88.0606 883.301 88.0606 883.301 88.0606C883.301 88.0606 883.301 88.0606 883.301 88.0606C883.301 88.0606 883.301 88.0606 883.301 88.0606C883.301 88.0606 883.301 88.0606 883.301 88.0606C883.301 88.0606 883.301 88.0606 883.301 88.0606C883.301 88.0606 883.301 88.0606 883.301 88.0606C883.301 88.0606 883.301 88.0606 883.301 88.0606C883.301 88.0606 883.301 88.0606 883.301 88.0606C883.301 88.0606 883.301 88.0606 883.301 88.0606C883.301 88.0606 883.301 88.0606 883.301 88.0606C883.301 88.0606 883.301 88.0606 883.301 88.0606C883.301 88.0606 883.301 88.0606 883.301 88.0606C883.301 88.0606 883.301 88.0606 883.301 88.0606C883.301 88.0606 883.301 88.0606 883.301 88.0606C883.301 88.0606 883.301 88.0606 883.301 88.0606C883.301 88.0606 883.301 88.0606 883.301 88.0606C883.301 88.0606 883.301 88.0606 883.301 88.0606C883.301 88.0606 883.301 88.0606 883.301 88.0606C883.301 88.0606 883.301 88.0606 883.301 88.0606C883.301 88.0606 883.301 88.0606 883.301 88.0606C883.301 88.0606 883.301 88.0606 883.301 88.0606C883.301 88.0606 883.301 88.0606 883.301 88.0606C883.301 88.0606 883.301 88.0606 883.301 88.0606C883.301 88.0606 883.301 88.0606 883.301 88.0606C883.301 88.0606 883.301 88.0606 883.301 88.0606C883.301 88.0606 883.301 88.0606 883.301 88.0605C883.301 88.0605 883.301 88.0605 883.301 88.0605C883.301 88.0605 883.301 88.0605 883.301 88.0605C883.301 88.0605 883.301 88.0605 883.301 88.0605C883.301 88.0605 883.301 88.0605 883.301 88.0605C883.301 88.0605 883.301 88.0605 883.301 88.0605C883.301 88.0605 883.301 88.0605 883.301 88.0605C883.301 88.0605 883.301 88.0605 883.301 88.0605C883.301 88.0605 883.301 88.0605 883.301 88.0605C883.301 88.0605 883.301 88.0605 883.301 88.0605C883.301 88.0605 883.301 88.0605 883.301 88.0605C883.301 88.0605 883.301 88.0605 883.301 88.0605C883.301 88.0605 883.301 88.0605 883.301 88.0605C883.301 88.0605 883.301 88.0605 883.301 88.0605C883.301 88.0605 883.301 88.0605 883.301 88.0605C883.301 88.0605 883.301 88.0605 883.301 88.0605C883.301 88.0605 883.301 88.0605 883.301 88.0605C883.301 88.0605 883.301 88.0605 883.301 88.0605C883.301 88.0605 883.301 88.0605 883.301 88.0605C883.301 88.0605 883.301 88.0605 883.301 88.0605C883.301 88.0605 883.301 88.0605 883.301 88.0605C883.301 88.0605 883.301 88.0605 883.301 88.0605C883.301 88.0605 883.301 88.0605 883.301 88.0605C883.301 88.0605 883.301 88.0605 883.301 88.0605C883.301 88.0605 883.301 88.0605 883.301 88.0605C883.301 88.0605 883.301 88.0605 883.301 88.0605C883.301 88.0605 883.301 88.0605 883.301 88.0605C883.301 88.0605 883.301 88.0605 883.301 88.0605C883.301 88.0605 883.301 88.0605 883.301 88.0605C883.301 88.0605 883.301 88.0605 883.301 88.0605C883.301 88.0605 883.301 88.0605 883.301 88.0605C883.301 88.0605 883.301 88.0605 883.301 88.0605C883.301 88.0605 883.301 88.0605 883.301 88.0605C883.301 88.0605 883.301 88.0605 883.301 88.0605C883.301 88.0605 883.301 88.0605 883.301 88.0605C883.301 88.0605 883.301 88.0605 883.301 88.0605C883.301 88.0605 883.301 88.0605 883.301 88.0605C883.301 88.0605 883.301 88.0605 883.301 88.0605C883.301 88.0605 883.301 88.0605 883.301 88.0605C883.301 88.0605 883.301 88.0605 883.301 88.0605C883.301 88.0605 883.301 88.0605 883.301 88.0605C883.301 88.0605 883.301 88.0605 883.301 88.0605C883.301 88.0605 883.301 88.0605 883.301 88.0605C883.301 88.0605 883.301 88.0605 883.301 88.0605C883.301 88.0605 883.301 88.0605 883.301 88.0605C883.301 88.0605 883.301 88.0605 883.301 88.0605C883.301 88.0605 883.301 88.0605 883.301 88.0605C883.301 88.0605 883.301 88.0605 883.301 88.0605C883.301 88.0605 883.301 88.0605 883.301 88.0605C883.301 88.0605 883.301 88.0605 883.301 88.0605C883.301 88.0605 883.301 88.0605 883.301 88.0605C883.301 88.0605 883.301 88.0605 883.301 88.0605C883.301 88.0605 883.301 88.0605 883.301 88.0605C883.301 88.0605 883.301 88.0605 883.301 88.0605C883.301 88.0605 883.301 88.0605 883.301 88.0605C883.301 88.0605 883.301 88.0605 883.301 88.0605C883.301 88.0605 883.301 88.0605 883.301 88.0605C883.301 88.0605 883.301 88.0605 883.301 88.0605C883.301 88.0605 883.301 88.0605 883.301 88.0605C883.301 88.0605 883.301 88.0605 883.301 88.0605C883.301 88.0605 883.301 88.0605 883.301 88.0605C883.301 88.0605 883.301 88.0605 883.301 88.0605C883.301 88.0605 883.301 88.0605 883.301 88.0605C883.301 88.0605 883.301 88.0605 883.301 88.0605C883.301 88.0605 883.301 88.0605 883.301 88.0605C883.301 88.0605 883.301 88.0605 883.301 88.0605C883.301 88.0605 883.301 88.0605 883.301 88.0605C883.301 88.0605 883.301 88.0605 883.301 88.0605C883.301 88.0605 883.301 88.0605 883.301 88.0605C883.301 88.0605 883.301 88.0605 883.301 88.0605C883.301 88.0605 883.301 88.0605 883.301 88.0605C883.301 88.0605 883.301 88.0605 883.301 88.0605C883.301 88.0605 883.301 88.0605 883.301 88.0605C883.301 88.0605 883.301 88.0605 883.301 88.0605C883.301 88.0605 883.301 88.0605 883.301 88.0605C883.301 88.0605 883.301 88.0605 883.301 88.0605C883.301 88.0605 883.301 88.0605 883.301 88.0605C883.301 88.0605 883.301 88.0605 883.301 88.0605C883.301 88.0605 883.301 88.0605 883.301 88.0605C883.301 88.0605 883.301 88.0605 883.301 88.0605C883.301 88.0605 883.301 88.0605 883.301 88.0605C883.301 88.0605 883.301 88.0605 883.301 88.0605C883.301 88.0604 883.301 88.0604 883.301 88.0604C883.301 88.0604 883.301 88.0604 883.301 88.0604C883.301 88.0604 883.301 88.0604 883.301 88.0604C883.301 88.0604 883.301 88.0604 883.301 88.0604C883.301 88.0604 883.301 88.0604 883.301 88.0604C883.301 88.0604 883.301 88.0604 883.301 88.0604C883.301 88.0604 883.301 88.0604 883.301 88.0604C883.301 88.0604 883.301 88.0604 883.301 88.0604C883.301 88.0604 883.301 88.0604 883.301 88.0604C883.301 88.0604 883.301 88.0604 883.301 88.0604C883.301 88.0604 883.301 88.0604 883.301 88.0604C883.301 88.0604 883.301 88.0604 883.301 88.0604C883.301 88.0604 883.301 88.0604 883.301 88.0604C883.301 88.0604 883.301 88.0604 883.301 88.0604C883.301 88.0604 883.301 88.0604 883.301 88.0604C883.301 88.0604 883.301 88.0604 883.301 88.0604C883.301 88.0604 883.301 88.0604 883.301 88.0604C883.301 88.0604 883.301 88.0604 883.301 88.0604C883.301 88.0604 883.301 88.0604 883.301 88.0604C883.301 88.0604 883.301 88.0604 883.301 88.0604C883.301 88.0604 883.301 88.0604 883.301 88.0604C883.301 88.0604 883.301 88.0604 883.301 88.0604C883.301 88.0604 883.301 88.0604 883.301 88.0604C883.301 88.0604 883.301 88.0604 883.301 88.0604C883.301 88.0604 883.301 88.0604 883.301 88.0604C883.301 88.0604 883.301 88.0604 883.301 88.0604C883.301 88.0604 883.301 88.0604 883.301 88.0604C883.301 88.0604 883.301 88.0604 883.301 88.0604C883.301 88.0604 883.301 88.0604 883.301 88.0604C883.301 88.0604 883.301 88.0604 883.301 88.0604C883.301 88.0604 883.301 88.0604 883.301 88.0604C883.301 88.0604 883.301 88.0604 883.301 88.0604C883.301 88.0604 883.301 88.0604 883.301 88.0604C883.301 88.0604 883.301 88.0604 883.301 88.0604C883.301 88.0604 883.301 88.0604 883.301 88.0604C883.301 88.0604 883.301 88.0604 883.301 88.0604C883.301 88.0604 883.301 88.0604 883.301 88.0604C883.301 88.0604 883.301 88.0604 883.301 88.0604C883.301 88.0604 883.301 88.0604 883.301 88.0604C883.301 88.0604 883.301 88.0604 883.301 88.0604C883.301 88.0604 883.301 88.0604 883.301 88.0604C883.301 88.0604 883.301 88.0604 883.301 88.0604C883.301 88.0604 883.301 88.0604 883.301 88.0604C883.301 88.0604 883.301 88.0604 883.301 88.0604C883.301 88.0604 883.301 88.0604 883.301 88.0604C883.301 88.0604 883.301 88.0604 883.301 88.0604C883.301 88.0604 883.301 88.0604 883.301 88.0604C883.301 88.0604 883.301 88.0604 883.301 88.0604C883.301 88.0604 883.301 88.0604 883.301 88.0604C883.301 88.0604 883.301 88.0604 883.301 88.0604C883.301 88.0604 883.301 88.0604 883.301 88.0604C883.301 88.0604 883.301 88.0604 883.301 88.0604C883.301 88.0604 883.301 88.0604 883.301 88.0604C883.301 88.0604 883.301 88.0604 883.301 88.0604C883.301 88.0604 883.301 88.0604 883.301 88.0604C883.301 88.0604 883.301 88.0604 883.301 88.0604C883.301 88.0604 883.301 88.0604 883.301 88.0604C883.301 88.0604 883.301 88.0604 883.301 88.0604C883.301 88.0604 883.301 88.0604 883.301 88.0604C883.301 88.0604 883.301 88.0604 883.301 88.0604C883.301 88.0604 883.301 88.0604 883.301 88.0604C883.301 88.0604 883.301 88.0604 883.301 88.0604C883.301 88.0604 883.301 88.0604 883.301 88.0604C883.301 88.0604 883.301 88.0604 883.301 88.0604C883.301 88.0604 883.301 88.0604 883.301 88.0604C883.301 88.0604 883.301 88.0604 883.301 88.0604C883.301 88.0604 883.301 88.0604 883.301 88.0604C883.301 88.0604 883.301 88.0604 883.301 88.0604C883.301 88.0604 883.301 88.0604 883.301 88.0604C883.301 88.0604 883.301 88.0604 883.301 88.0604C883.301 88.0604 883.301 88.0604 883.301 88.0604C883.301 88.0604 883.301 88.0604 883.301 88.0604C883.301 88.0604 883.301 88.0604 883.301 88.0604C883.301 88.0604 883.301 88.0604 883.301 88.0604C883.301 88.0604 883.301 88.0604 883.301 88.0604C883.301 88.0604 883.301 88.0604 883.301 88.0604C883.301 88.0604 883.301 88.0604 883.301 88.0604C883.301 88.0604 883.301 88.0604 883.301 88.0604C883.301 88.0604 883.301 88.0604 883.301 88.0604C883.301 88.0604 883.301 88.0604 883.301 88.0604C883.301 88.0604 883.301 88.0604 883.301 88.0604C883.301 88.0604 883.301 88.0603 883.301 88.0603C883.301 88.0603 883.301 88.0603 883.301 88.0603C883.301 88.0603 883.301 88.0603 883.301 88.0603C883.301 88.0603 883.301 88.0603 883.301 88.0603C883.301 88.0603 883.301 88.0603 883.301 88.0603C883.301 88.0603 883.301 88.0603 883.301 88.0603C883.301 88.0603 883.301 88.0603 883.301 88.0603C883.301 88.0603 883.301 88.0603 883.301 88.0603C883.301 88.0603 883.301 88.0603 883.301 88.0603C883.301 88.0603 883.301 88.0603 883.301 88.0603C883.301 88.0603 883.301 88.0603 883.301 88.0603C883.301 88.0603 883.301 88.0603 883.301 88.0603C883.301 88.0603 883.301 88.0603 883.301 88.0603C883.301 88.0603 883.301 88.0603 883.301 88.0603C883.301 88.0603 883.301 88.0603 883.301 88.0603C883.301 88.0603 883.301 88.0603 883.301 88.0603C883.301 88.0603 883.301 88.0603 883.301 88.0603C883.301 88.0603 883.301 88.0603 883.301 88.0603C883.301 88.0603 883.301 88.0603 883.301 88.0603C883.301 88.0603 883.301 88.0603 883.301 88.0603C883.301 88.0603 883.301 88.0603 883.301 88.0603C883.301 88.0603 883.301 88.0603 883.301 88.0603C883.301 88.0603 883.301 88.0603 883.301 88.0603C883.301 88.0603 883.301 88.0603 883.301 88.0603C883.301 88.0603 883.301 88.0603 883.301 88.0603C883.301 88.0603 883.301 88.0603 883.301 88.0603C883.301 88.0603 883.301 88.0603 883.301 88.0603C883.301 88.0603 883.301 88.0603 883.301 88.0603C883.301 88.0603 883.301 88.0603 883.301 88.0603C883.301 88.0603 883.301 88.0603 883.301 88.0603C883.301 88.0603 883.301 88.0603 883.301 88.0603C883.301 88.0603 883.301 88.0603 883.301 88.0603C883.301 88.0603 883.301 88.0603 883.301 88.0603C883.301 88.0603 883.301 88.0603 883.301 88.0603C883.301 88.0603 883.301 88.0603 883.301 88.0603C883.301 88.0603 883.301 88.0603 883.301 88.0603C883.301 88.0603 883.301 88.0603 883.301 88.0603C883.301 88.0603 883.301 88.0603 883.301 88.0603C883.301 88.0603 883.301 88.0603 883.301 88.0603C883.301 88.0603 883.301 88.0603 883.301 88.0603C883.301 88.0603 883.301 88.0603 883.301 88.0603C883.301 88.0603 883.301 88.0603 883.301 88.0603C883.301 88.0603 883.301 88.0603 883.301 88.0603C883.301 88.0603 883.301 88.0603 883.301 88.0603C883.301 88.0603 883.301 88.0603 883.301 88.0603C883.301 88.0603 883.301 88.0603 883.301 88.0603C883.301 88.0603 883.301 88.0603 883.301 88.0603C883.301 88.0603 883.301 88.0603 883.301 88.0603C883.301 88.0603 883.301 88.0603 883.301 88.0603C883.301 88.0603 883.301 88.0603 883.301 88.0603C883.301 88.0603 883.301 88.0603 883.301 88.0603C883.301 88.0603 883.301 88.0603 883.301 88.0603C883.301 88.0603 883.301 88.0603 883.301 88.0603C883.301 88.0603 883.301 88.0603 883.301 88.0603C883.301 88.0603 883.301 88.0603 883.301 88.0603C883.301 88.0603 883.301 88.0603 883.301 88.0603C883.301 88.0603 883.301 88.0603 883.301 88.0603C883.301 88.0603 883.301 88.0603 883.301 88.0603C883.301 88.0603 883.301 88.0603 883.301 88.0603C883.301 88.0603 883.301 88.0603 883.301 88.0603C883.301 88.0603 883.301 88.0603 883.301 88.0603C883.301 88.0603 883.301 88.0603 883.301 88.0603C883.301 88.0603 883.301 88.0603 883.301 88.0603C883.301 88.0603 883.301 88.0603 883.301 88.0603C883.301 88.0603 883.301 88.0603 883.301 88.0603C883.301 88.0603 883.301 88.0603 883.301 88.0603C883.301 88.0603 883.301 88.0603 883.301 88.0603C883.301 88.0603 883.301 88.0603 883.301 88.0603C883.301 88.0603 883.301 88.0603 883.301 88.0603C883.301 88.0603 883.301 88.0603 883.301 88.0603C883.301 88.0603 883.301 88.0603 883.301 88.0603C883.301 88.0603 883.301 88.0603 883.301 88.0603C883.301 88.0603 883.301 88.0603 883.301 88.0603C883.301 88.0603 883.301 88.0603 883.301 88.0603C883.301 88.0603 883.301 88.0603 883.301 88.0603C883.301 88.0603 883.301 88.0603 883.301 88.0603C883.301 88.0603 883.301 88.0603 883.301 88.0603C883.301 88.0603 883.301 88.0603 883.301 88.0603C883.301 88.0603 883.301 88.0603 883.301 88.0603C883.301 88.0603 883.301 88.0603 883.301 88.0603C883.301 88.0603 883.301 88.0603 883.301 88.0603C883.301 88.0603 883.301 88.0603 883.301 88.0603C883.301 88.0602 883.301 88.0602 883.301 88.0602C883.301 88.0602 883.301 88.0602 883.301 88.0602C883.301 88.0602 883.301 88.0602 883.301 88.0602C883.301 88.0602 883.301 88.0602 883.301 88.0602C883.301 88.0602 883.301 88.0602 883.301 88.0602C883.301 88.0602 883.301 88.0602 883.301 88.0602C883.301 88.0602 883.301 88.0602 883.301 88.0602C883.301 88.0602 883.301 88.0602 883.301 88.0602C883.301 88.0602 883.301 88.0602 883.301 88.0602C883.301 88.0602 883.301 88.0602 883.301 88.0602C883.301 88.0602 883.301 88.0602 883.301 88.0602C883.301 88.0602 883.301 88.0602 883.301 88.0602C883.301 88.0602 883.301 88.0602 883.301 88.0602C883.301 88.0602 883.301 88.0602 883.301 88.0602C883.301 88.0602 883.301 88.0602 883.301 88.0602C883.301 88.0602 883.301 88.0602 883.301 88.0602C883.301 88.0602 883.301 88.0602 883.301 88.0602C883.301 88.0602 883.301 88.0602 883.301 88.0602C883.301 88.0602 883.301 88.0602 883.301 88.0602C883.301 88.0602 883.301 88.0602 883.301 88.0602C883.301 88.0602 883.301 88.0602 883.301 88.0602C883.301 88.0602 883.301 88.0602 883.301 88.0602C883.301 88.0602 883.301 88.0602 883.301 88.0602C883.301 88.0602 883.301 88.0602 883.301 88.0602C883.301 88.0602 883.301 88.0602 883.301 88.0602C883.301 88.0602 883.301 88.0602 883.301 88.0602C883.301 88.0602 883.301 88.0602 883.301 88.0602C883.301 88.0602 883.301 88.0602 883.301 88.0602C883.301 88.0602 883.301 88.0602 883.301 88.0602C883.301 88.0602 883.301 88.0602 883.301 88.0602C883.301 88.0602 883.301 88.0602 883.301 88.0602C883.301 88.0602 883.301 88.0602 883.301 88.0602C883.301 88.0602 883.301 88.0602 883.301 88.0602C883.301 88.0602 883.301 88.0602 883.301 88.0602C883.301 88.0602 883.301 88.0602 883.301 88.0602C883.301 88.0602 883.301 88.0602 883.301 88.0602C883.301 88.0602 883.301 88.0602 883.301 88.0602C883.301 88.0602 883.301 88.0602 883.301 88.0602C883.301 88.0602 883.301 88.0602 883.301 88.0602C883.301 88.0602 883.301 88.0602 883.301 88.0602C883.301 88.0602 883.301 88.0602 883.301 88.0602C883.301 88.0602 883.301 88.0602 883.301 88.0602C883.301 88.0602 883.301 88.0602 883.301 88.0602C883.301 88.0602 883.301 88.0602 883.301 88.0602C883.301 88.0602 883.301 88.0602 883.301 88.0602C883.301 88.0602 883.301 88.0602 883.301 88.0602C883.301 88.0602 883.301 88.0602 883.301 88.0602C883.301 88.0602 883.301 88.0602 883.301 88.0602C883.301 88.0602 883.301 88.0602 883.301 88.0602C883.301 88.0602 883.301 88.0602 883.301 88.0602C883.301 88.0602 883.301 88.0602 883.301 88.0602C883.301 88.0602 883.301 88.0602 883.301 88.0602C883.301 88.0602 883.301 88.0602 883.301 88.0602C883.301 88.0602 883.301 88.0602 883.301 88.0602C883.301 88.0602 883.301 88.0602 883.301 88.0602C883.301 88.0602 883.301 88.0602 883.301 88.0602C883.301 88.0602 883.301 88.0602 883.301 88.0602C883.301 88.0602 883.301 88.0602 883.301 88.0602C883.301 88.0602 883.301 88.0602 883.301 88.0602C883.301 88.0602 883.301 88.0602 883.301 88.0602C883.301 88.0602 883.301 88.0602 883.301 88.0602C883.301 88.0602 883.301 88.0602 883.301 88.0602C883.301 88.0602 883.301 88.0602 883.301 88.0602C883.301 88.0602 883.301 88.0602 883.301 88.0602C883.301 88.0602 883.301 88.0602 883.301 88.0602C883.301 88.0602 883.301 88.0602 883.301 88.0602C883.301 88.0602 883.301 88.0602 883.301 88.0602C883.301 88.0602 883.301 88.0602 883.301 88.0602C883.301 88.0602 883.301 88.0602 883.301 88.0602C883.301 88.0602 883.301 88.0602 883.301 88.0602C883.301 88.0602 883.301 88.0602 883.301 88.0602C883.301 88.0602 883.301 88.0602 883.301 88.0602C883.301 88.0602 883.301 88.0602 883.301 88.0602C883.301 88.0602 883.301 88.0602 883.301 88.0602C883.301 88.0602 883.301 88.0602 883.301 88.0602C883.301 88.0602 883.301 88.0602 883.301 88.0602C883.301 88.0602 883.301 88.0602 883.301 88.0602C883.301 88.0602 883.301 88.0602 883.301 88.0602C883.301 88.0602 883.301 88.0602 883.301 88.0602C883.301 88.0602 883.301 88.0602 883.301 88.0602C883.301 88.0602 883.301 88.0602 883.301 88.0602C883.301 88.0602 883.301 88.0602 883.301 88.0602C883.301 88.0601 883.301 88.0601 883.301 88.0601C883.301 88.0601 883.301 88.0601 883.301 88.0601C883.301 88.0601 883.301 88.0601 883.301 88.0601C883.301 88.0601 883.301 88.0601 883.301 88.0601C883.301 88.0601 883.301 88.0601 883.301 88.0601C883.301 88.0601 883.301 88.0601 883.301 88.0601C883.301 88.0601 883.301 88.0601 883.301 88.0601C883.301 88.0601 883.301 88.0601 883.301 88.0601C883.301 88.0601 883.301 88.0601 883.301 88.0601C883.301 88.0601 883.301 88.0601 883.301 88.0601C883.301 88.0601 883.301 88.0601 883.301 88.0601C883.301 88.0601 883.301 88.0601 883.301 88.0601C883.301 88.0601 883.301 88.0601 883.301 88.0601C883.301 88.0601 883.301 88.0601 883.301 88.0601C883.301 88.0601 883.301 88.0601 883.301 88.0601C883.301 88.0601 883.301 88.0601 883.301 88.0601C883.301 88.0601 883.301 88.0601 883.301 88.0601C883.301 88.0601 883.301 88.0601 883.301 88.0601C883.301 88.0601 883.301 88.0601 883.301 88.0601C883.301 88.0601 883.301 88.0601 883.301 88.0601C883.301 88.0601 883.301 88.0601 883.301 88.0601C883.301 88.0601 883.301 88.0601 883.301 88.0601C883.301 88.0601 883.301 88.0601 883.301 88.0601C883.301 88.0601 883.301 88.0601 883.301 88.0601C883.301 88.0601 883.301 88.0601 883.301 88.0601C883.301 88.0601 883.301 88.0601 883.301 88.0601C883.301 88.0601 883.301 88.0601 883.301 88.0601C883.301 88.0601 883.301 88.0601 883.301 88.0601C883.301 88.0601 883.301 88.0601 883.301 88.0601C883.301 88.0601 883.301 88.0601 883.301 88.0601C883.301 88.0601 883.301 88.0601 883.301 88.0601C883.301 88.0601 883.301 88.0601 883.301 88.0601C883.301 88.0601 883.301 88.0601 883.301 88.0601C883.301 88.0601 883.301 88.0601 883.301 88.0601C883.301 88.0601 883.301 88.0601 883.301 88.0601C883.301 88.0601 883.301 88.0601 883.301 88.0601C883.301 88.0601 883.301 88.0601 883.301 88.0601C883.301 88.0601 883.301 88.0601 883.301 88.0601H882.301H881.301C881.301 88.0601 881.301 88.0601 881.301 88.0601C881.301 88.0601 881.301 88.0601 881.301 88.0601C881.301 88.0601 881.301 88.0601 881.301 88.0601C881.301 88.0601 881.301 88.0601 881.301 88.0601C881.301 88.0601 881.301 88.0601 881.301 88.0601C881.301 88.0601 881.301 88.0601 881.301 88.0601C881.301 88.0601 881.301 88.0601 881.301 88.0601C881.301 88.0601 881.301 88.0601 881.301 88.0601C881.301 88.0601 881.301 88.0601 881.301 88.0601C881.301 88.0601 881.301 88.0601 881.301 88.0601C881.301 88.0601 881.301 88.0601 881.301 88.0601C881.301 88.0601 881.301 88.0601 881.301 88.0601C881.301 88.0601 881.301 88.0601 881.301 88.0601C881.301 88.0601 881.301 88.0601 881.301 88.0601C881.301 88.0601 881.301 88.0601 881.301 88.0601C881.301 88.0601 881.301 88.0601 881.301 88.0601C881.301 88.0601 881.301 88.0601 881.301 88.0601C881.301 88.0601 881.301 88.0601 881.301 88.0601C881.301 88.0601 881.301 88.0601 881.301 88.0601C881.301 88.0601 881.301 88.0601 881.301 88.0601C881.301 88.0601 881.301 88.0601 881.301 88.0601C881.301 88.0601 881.301 88.0601 881.301 88.0601C881.301 88.0601 881.301 88.0601 881.301 88.0601C881.301 88.0601 881.301 88.0601 881.301 88.0601C881.301 88.0601 881.301 88.0601 881.301 88.0601C881.301 88.0601 881.301 88.0601 881.301 88.0601C881.301 88.0601 881.301 88.0601 881.301 88.0601C881.301 88.0601 881.301 88.0601 881.301 88.0601C881.301 88.0601 881.301 88.0601 881.301 88.0601C881.301 88.0601 881.301 88.0601 881.301 88.0601C881.301 88.0601 881.301 88.0601 881.301 88.0601C881.301 88.0601 881.301 88.0601 881.301 88.0601C881.301 88.0601 881.301 88.0601 881.301 88.0601C881.301 88.0601 881.301 88.0601 881.301 88.0601C881.301 88.0601 881.301 88.0601 881.301 88.0601C881.301 88.0601 881.301 88.0601 881.301 88.0601C881.301 88.0601 881.301 88.0601 881.301 88.0601C881.301 88.0601 881.301 88.0601 881.301 88.0602C881.301 88.0602 881.301 88.0602 881.301 88.0602C881.301 88.0602 881.301 88.0602 881.301 88.0602C881.301 88.0602 881.301 88.0602 881.301 88.0602C881.301 88.0602 881.301 88.0602 881.301 88.0602C881.301 88.0602 881.301 88.0602 881.301 88.0602C881.301 88.0602 881.301 88.0602 881.301 88.0602C881.301 88.0602 881.301 88.0602 881.301 88.0602C881.301 88.0602 881.301 88.0602 881.301 88.0602C881.301 88.0602 881.301 88.0602 881.301 88.0602C881.301 88.0602 881.301 88.0602 881.301 88.0602C881.301 88.0602 881.301 88.0602 881.301 88.0602C881.301 88.0602 881.301 88.0602 881.301 88.0602C881.301 88.0602 881.301 88.0602 881.301 88.0602C881.301 88.0602 881.301 88.0602 881.301 88.0602C881.301 88.0602 881.301 88.0602 881.301 88.0602C881.301 88.0602 881.301 88.0602 881.301 88.0602C881.301 88.0602 881.301 88.0602 881.301 88.0602C881.301 88.0602 881.301 88.0602 881.301 88.0602C881.301 88.0602 881.301 88.0602 881.301 88.0602C881.301 88.0602 881.301 88.0602 881.301 88.0602C881.301 88.0602 881.301 88.0602 881.301 88.0602C881.301 88.0602 881.301 88.0602 881.301 88.0602C881.301 88.0602 881.301 88.0602 881.301 88.0602C881.301 88.0602 881.301 88.0602 881.301 88.0602C881.301 88.0602 881.301 88.0602 881.301 88.0602C881.301 88.0602 881.301 88.0602 881.301 88.0602C881.301 88.0602 881.301 88.0602 881.301 88.0602C881.301 88.0602 881.301 88.0602 881.301 88.0602C881.301 88.0602 881.301 88.0602 881.301 88.0602C881.301 88.0602 881.301 88.0602 881.301 88.0602C881.301 88.0602 881.301 88.0602 881.301 88.0602C881.301 88.0602 881.301 88.0602 881.301 88.0602C881.301 88.0602 881.301 88.0602 881.301 88.0602C881.301 88.0602 881.301 88.0602 881.301 88.0602C881.301 88.0602 881.301 88.0602 881.301 88.0602C881.301 88.0602 881.301 88.0602 881.301 88.0602C881.301 88.0602 881.301 88.0602 881.301 88.0602C881.301 88.0602 881.301 88.0602 881.301 88.0602C881.301 88.0602 881.301 88.0602 881.301 88.0602C881.301 88.0602 881.301 88.0602 881.301 88.0602C881.301 88.0602 881.301 88.0602 881.301 88.0602C881.301 88.0602 881.301 88.0602 881.301 88.0602C881.301 88.0602 881.301 88.0602 881.301 88.0602C881.301 88.0602 881.301 88.0602 881.301 88.0602C881.301 88.0602 881.301 88.0602 881.301 88.0602C881.301 88.0602 881.301 88.0602 881.301 88.0602C881.301 88.0602 881.301 88.0602 881.301 88.0602C881.301 88.0602 881.301 88.0602 881.301 88.0602C881.301 88.0602 881.301 88.0602 881.301 88.0602C881.301 88.0602 881.301 88.0602 881.301 88.0602C881.301 88.0602 881.301 88.0602 881.301 88.0602C881.301 88.0602 881.301 88.0602 881.301 88.0602C881.301 88.0602 881.301 88.0602 881.301 88.0602C881.301 88.0602 881.301 88.0602 881.301 88.0602C881.301 88.0602 881.301 88.0602 881.301 88.0602C881.301 88.0602 881.301 88.0602 881.301 88.0602C881.301 88.0602 881.301 88.0602 881.301 88.0602C881.301 88.0602 881.301 88.0602 881.301 88.0602C881.301 88.0602 881.301 88.0602 881.301 88.0602C881.301 88.0602 881.301 88.0602 881.301 88.0602C881.301 88.0602 881.301 88.0602 881.301 88.0602C881.301 88.0602 881.301 88.0602 881.301 88.0602C881.301 88.0602 881.301 88.0602 881.301 88.0602C881.301 88.0602 881.301 88.0602 881.301 88.0602C881.301 88.0602 881.301 88.0602 881.301 88.0602C881.301 88.0602 881.301 88.0602 881.301 88.0602C881.301 88.0602 881.301 88.0602 881.301 88.0602C881.301 88.0602 881.301 88.0602 881.301 88.0602C881.301 88.0602 881.301 88.0602 881.301 88.0602C881.301 88.0602 881.301 88.0602 881.301 88.0602C881.301 88.0602 881.301 88.0602 881.301 88.0602C881.301 88.0602 881.301 88.0602 881.301 88.0602C881.301 88.0602 881.301 88.0602 881.301 88.0602C881.301 88.0602 881.301 88.0602 881.301 88.0602C881.301 88.0602 881.301 88.0602 881.301 88.0602C881.301 88.0602 881.301 88.0602 881.301 88.0602C881.301 88.0602 881.301 88.0602 881.301 88.0602C881.301 88.0602 881.301 88.0602 881.301 88.0602C881.301 88.0602 881.301 88.0602 881.301 88.0602C881.301 88.0602 881.301 88.0602 881.301 88.0602C881.301 88.0602 881.301 88.0602 881.301 88.0602C881.301 88.0602 881.301 88.0602 881.301 88.0603C881.301 88.0603 881.301 88.0603 881.301 88.0603C881.301 88.0603 881.301 88.0603 881.301 88.0603C881.301 88.0603 881.301 88.0603 881.301 88.0603C881.301 88.0603 881.301 88.0603 881.301 88.0603C881.301 88.0603 881.301 88.0603 881.301 88.0603C881.301 88.0603 881.301 88.0603 881.301 88.0603C881.301 88.0603 881.301 88.0603 881.301 88.0603C881.301 88.0603 881.301 88.0603 881.301 88.0603C881.301 88.0603 881.301 88.0603 881.301 88.0603C881.301 88.0603 881.301 88.0603 881.301 88.0603C881.301 88.0603 881.301 88.0603 881.301 88.0603C881.301 88.0603 881.301 88.0603 881.301 88.0603C881.301 88.0603 881.301 88.0603 881.301 88.0603C881.301 88.0603 881.301 88.0603 881.301 88.0603C881.301 88.0603 881.301 88.0603 881.301 88.0603C881.301 88.0603 881.301 88.0603 881.301 88.0603C881.301 88.0603 881.301 88.0603 881.301 88.0603C881.301 88.0603 881.301 88.0603 881.301 88.0603C881.301 88.0603 881.301 88.0603 881.301 88.0603C881.301 88.0603 881.301 88.0603 881.301 88.0603C881.301 88.0603 881.301 88.0603 881.301 88.0603C881.301 88.0603 881.301 88.0603 881.301 88.0603C881.301 88.0603 881.301 88.0603 881.301 88.0603C881.301 88.0603 881.301 88.0603 881.301 88.0603C881.301 88.0603 881.301 88.0603 881.301 88.0603C881.301 88.0603 881.301 88.0603 881.301 88.0603C881.301 88.0603 881.301 88.0603 881.301 88.0603C881.301 88.0603 881.301 88.0603 881.301 88.0603C881.301 88.0603 881.301 88.0603 881.301 88.0603C881.301 88.0603 881.301 88.0603 881.301 88.0603C881.301 88.0603 881.301 88.0603 881.301 88.0603C881.301 88.0603 881.301 88.0603 881.301 88.0603C881.301 88.0603 881.301 88.0603 881.301 88.0603C881.301 88.0603 881.301 88.0603 881.301 88.0603C881.301 88.0603 881.301 88.0603 881.301 88.0603C881.301 88.0603 881.301 88.0603 881.301 88.0603C881.301 88.0603 881.301 88.0603 881.301 88.0603C881.301 88.0603 881.301 88.0603 881.301 88.0603C881.301 88.0603 881.301 88.0603 881.301 88.0603C881.301 88.0603 881.301 88.0603 881.301 88.0603C881.301 88.0603 881.301 88.0603 881.301 88.0603C881.301 88.0603 881.301 88.0603 881.301 88.0603C881.301 88.0603 881.301 88.0603 881.301 88.0603C881.301 88.0603 881.301 88.0603 881.301 88.0603C881.301 88.0603 881.301 88.0603 881.301 88.0603C881.301 88.0603 881.301 88.0603 881.301 88.0603C881.301 88.0603 881.301 88.0603 881.301 88.0603C881.301 88.0603 881.301 88.0603 881.301 88.0603C881.301 88.0603 881.301 88.0603 881.301 88.0603C881.301 88.0603 881.301 88.0603 881.301 88.0603C881.301 88.0603 881.301 88.0603 881.301 88.0603C881.301 88.0603 881.301 88.0603 881.301 88.0603C881.301 88.0603 881.301 88.0603 881.301 88.0603C881.301 88.0603 881.301 88.0603 881.301 88.0603C881.301 88.0603 881.301 88.0603 881.301 88.0603C881.301 88.0603 881.301 88.0603 881.301 88.0603C881.301 88.0603 881.301 88.0603 881.301 88.0603C881.301 88.0603 881.301 88.0603 881.301 88.0603C881.301 88.0603 881.301 88.0603 881.301 88.0603C881.301 88.0603 881.301 88.0603 881.301 88.0603C881.301 88.0603 881.301 88.0603 881.301 88.0603C881.301 88.0603 881.301 88.0603 881.301 88.0603C881.301 88.0603 881.301 88.0603 881.301 88.0603C881.301 88.0603 881.301 88.0603 881.301 88.0603C881.301 88.0603 881.301 88.0603 881.301 88.0603C881.301 88.0603 881.301 88.0603 881.301 88.0603C881.301 88.0603 881.301 88.0603 881.301 88.0603C881.301 88.0603 881.301 88.0603 881.301 88.0603C881.301 88.0603 881.301 88.0603 881.301 88.0603C881.301 88.0603 881.301 88.0603 881.301 88.0603C881.301 88.0603 881.301 88.0603 881.301 88.0603C881.301 88.0603 881.301 88.0603 881.301 88.0603C881.301 88.0603 881.301 88.0603 881.301 88.0603C881.301 88.0603 881.301 88.0603 881.301 88.0603C881.301 88.0603 881.301 88.0603 881.301 88.0603C881.301 88.0603 881.301 88.0603 881.301 88.0603C881.301 88.0603 881.301 88.0603 881.301 88.0603C881.301 88.0603 881.301 88.0603 881.301 88.0603C881.301 88.0603 881.301 88.0603 881.301 88.0603C881.301 88.0603 881.301 88.0603 881.301 88.0603C881.301 88.0603 881.301 88.0603 881.301 88.0603C881.301 88.0603 881.301 88.0604 881.301 88.0604C881.301 88.0604 881.301 88.0604 881.301 88.0604C881.301 88.0604 881.301 88.0604 881.301 88.0604C881.301 88.0604 881.301 88.0604 881.301 88.0604C881.301 88.0604 881.301 88.0604 881.301 88.0604C881.301 88.0604 881.301 88.0604 881.301 88.0604C881.301 88.0604 881.301 88.0604 881.301 88.0604C881.301 88.0604 881.301 88.0604 881.301 88.0604C881.301 88.0604 881.301 88.0604 881.301 88.0604C881.301 88.0604 881.301 88.0604 881.301 88.0604C881.301 88.0604 881.301 88.0604 881.301 88.0604C881.301 88.0604 881.301 88.0604 881.301 88.0604C881.301 88.0604 881.301 88.0604 881.301 88.0604C881.301 88.0604 881.301 88.0604 881.301 88.0604C881.301 88.0604 881.301 88.0604 881.301 88.0604C881.301 88.0604 881.301 88.0604 881.301 88.0604C881.301 88.0604 881.301 88.0604 881.301 88.0604C881.301 88.0604 881.301 88.0604 881.301 88.0604C881.301 88.0604 881.301 88.0604 881.301 88.0604C881.301 88.0604 881.301 88.0604 881.301 88.0604C881.301 88.0604 881.301 88.0604 881.301 88.0604C881.301 88.0604 881.301 88.0604 881.301 88.0604C881.301 88.0604 881.301 88.0604 881.301 88.0604C881.301 88.0604 881.301 88.0604 881.301 88.0604C881.301 88.0604 881.301 88.0604 881.301 88.0604C881.301 88.0604 881.301 88.0604 881.301 88.0604C881.301 88.0604 881.301 88.0604 881.301 88.0604C881.301 88.0604 881.301 88.0604 881.301 88.0604C881.301 88.0604 881.301 88.0604 881.301 88.0604C881.301 88.0604 881.301 88.0604 881.301 88.0604C881.301 88.0604 881.301 88.0604 881.301 88.0604C881.301 88.0604 881.301 88.0604 881.301 88.0604C881.301 88.0604 881.301 88.0604 881.301 88.0604C881.301 88.0604 881.301 88.0604 881.301 88.0604C881.301 88.0604 881.301 88.0604 881.301 88.0604C881.301 88.0604 881.301 88.0604 881.301 88.0604C881.301 88.0604 881.301 88.0604 881.301 88.0604C881.301 88.0604 881.301 88.0604 881.301 88.0604C881.301 88.0604 881.301 88.0604 881.301 88.0604C881.301 88.0604 881.301 88.0604 881.301 88.0604C881.301 88.0604 881.301 88.0604 881.301 88.0604C881.301 88.0604 881.301 88.0604 881.301 88.0604C881.301 88.0604 881.301 88.0604 881.301 88.0604C881.301 88.0604 881.301 88.0604 881.301 88.0604C881.301 88.0604 881.301 88.0604 881.301 88.0604C881.301 88.0604 881.301 88.0604 881.301 88.0604C881.301 88.0604 881.301 88.0604 881.301 88.0604C881.301 88.0604 881.301 88.0604 881.301 88.0604C881.301 88.0604 881.301 88.0604 881.301 88.0604C881.301 88.0604 881.301 88.0604 881.301 88.0604C881.301 88.0604 881.301 88.0604 881.301 88.0604C881.301 88.0604 881.301 88.0604 881.301 88.0604C881.301 88.0604 881.301 88.0604 881.301 88.0604C881.301 88.0604 881.301 88.0604 881.301 88.0604C881.301 88.0604 881.301 88.0604 881.301 88.0604C881.301 88.0604 881.301 88.0604 881.301 88.0604C881.301 88.0604 881.301 88.0604 881.301 88.0604C881.301 88.0604 881.301 88.0604 881.301 88.0604C881.301 88.0604 881.301 88.0604 881.301 88.0604C881.301 88.0604 881.301 88.0604 881.301 88.0604C881.301 88.0604 881.301 88.0604 881.301 88.0604C881.301 88.0604 881.301 88.0604 881.301 88.0604C881.301 88.0604 881.301 88.0604 881.301 88.0604C881.301 88.0604 881.301 88.0604 881.301 88.0604C881.301 88.0604 881.301 88.0604 881.301 88.0604C881.301 88.0604 881.301 88.0604 881.301 88.0604C881.301 88.0604 881.301 88.0604 881.301 88.0604C881.301 88.0604 881.301 88.0604 881.301 88.0604C881.301 88.0604 881.301 88.0604 881.301 88.0604C881.301 88.0604 881.301 88.0604 881.301 88.0604C881.301 88.0604 881.301 88.0604 881.301 88.0604C881.301 88.0604 881.301 88.0604 881.301 88.0604C881.301 88.0604 881.301 88.0604 881.301 88.0604C881.301 88.0604 881.301 88.0604 881.301 88.0604C881.301 88.0604 881.301 88.0604 881.301 88.0604C881.301 88.0604 881.301 88.0604 881.301 88.0604C881.301 88.0604 881.301 88.0604 881.301 88.0604C881.301 88.0604 881.301 88.0604 881.301 88.0604C881.301 88.0604 881.301 88.0604 881.301 88.0604C881.301 88.0604 881.301 88.0604 881.301 88.0604C881.301 88.0604 881.301 88.0604 881.301 88.0604C881.301 88.0604 881.301 88.0604 881.301 88.0605C881.301 88.0605 881.301 88.0605 881.301 88.0605C881.301 88.0605 881.301 88.0605 881.301 88.0605C881.301 88.0605 881.301 88.0605 881.301 88.0605C881.301 88.0605 881.301 88.0605 881.301 88.0605C881.301 88.0605 881.301 88.0605 881.301 88.0605C881.301 88.0605 881.301 88.0605 881.301 88.0605C881.301 88.0605 881.301 88.0605 881.301 88.0605C881.301 88.0605 881.301 88.0605 881.301 88.0605C881.301 88.0605 881.301 88.0605 881.301 88.0605C881.301 88.0605 881.301 88.0605 881.301 88.0605C881.301 88.0605 881.301 88.0605 881.301 88.0605C881.301 88.0605 881.301 88.0605 881.301 88.0605C881.301 88.0605 881.301 88.0605 881.301 88.0605C881.301 88.0605 881.301 88.0605 881.301 88.0605C881.301 88.0605 881.301 88.0605 881.301 88.0605C881.301 88.0605 881.301 88.0605 881.301 88.0605C881.301 88.0605 881.301 88.0605 881.301 88.0605C881.301 88.0605 881.301 88.0605 881.301 88.0605C881.301 88.0605 881.301 88.0605 881.301 88.0605C881.301 88.0605 881.301 88.0605 881.301 88.0605C881.301 88.0605 881.301 88.0605 881.301 88.0605C881.301 88.0605 881.301 88.0605 881.301 88.0605C881.301 88.0605 881.301 88.0605 881.301 88.0605C881.301 88.0605 881.301 88.0605 881.301 88.0605C881.301 88.0605 881.301 88.0605 881.301 88.0605C881.301 88.0605 881.301 88.0605 881.301 88.0605C881.301 88.0605 881.301 88.0605 881.301 88.0605C881.301 88.0605 881.301 88.0605 881.301 88.0605C881.301 88.0605 881.301 88.0605 881.301 88.0605C881.301 88.0605 881.301 88.0605 881.301 88.0605C881.301 88.0605 881.301 88.0605 881.301 88.0605C881.301 88.0605 881.301 88.0605 881.301 88.0605C881.301 88.0605 881.301 88.0605 881.301 88.0605C881.301 88.0605 881.301 88.0605 881.301 88.0605C881.301 88.0605 881.301 88.0605 881.301 88.0605C881.301 88.0605 881.301 88.0605 881.301 88.0605C881.301 88.0605 881.301 88.0605 881.301 88.0605C881.301 88.0605 881.301 88.0605 881.301 88.0605C881.301 88.0605 881.301 88.0605 881.301 88.0605C881.301 88.0605 881.301 88.0605 881.301 88.0605C881.301 88.0605 881.301 88.0605 881.301 88.0605C881.301 88.0605 881.301 88.0605 881.301 88.0605C881.301 88.0605 881.301 88.0605 881.301 88.0605C881.301 88.0605 881.301 88.0605 881.301 88.0605C881.301 88.0605 881.301 88.0605 881.301 88.0605C881.301 88.0605 881.301 88.0605 881.301 88.0605C881.301 88.0605 881.301 88.0605 881.301 88.0605C881.301 88.0605 881.301 88.0605 881.301 88.0605C881.301 88.0605 881.301 88.0605 881.301 88.0605C881.301 88.0605 881.301 88.0605 881.301 88.0605C881.301 88.0605 881.301 88.0605 881.301 88.0605C881.301 88.0605 881.301 88.0605 881.301 88.0605C881.301 88.0605 881.301 88.0605 881.301 88.0605C881.301 88.0605 881.301 88.0605 881.301 88.0605C881.301 88.0605 881.301 88.0605 881.301 88.0605C881.301 88.0605 881.301 88.0605 881.301 88.0605C881.301 88.0605 881.301 88.0605 881.301 88.0605C881.301 88.0605 881.301 88.0605 881.301 88.0605C881.301 88.0605 881.301 88.0605 881.301 88.0605C881.301 88.0605 881.301 88.0605 881.301 88.0605C881.301 88.0605 881.301 88.0605 881.301 88.0605C881.301 88.0605 881.301 88.0605 881.301 88.0605C881.301 88.0605 881.301 88.0605 881.301 88.0605C881.301 88.0605 881.301 88.0605 881.301 88.0605C881.301 88.0605 881.301 88.0605 881.301 88.0605C881.301 88.0605 881.301 88.0605 881.301 88.0605C881.301 88.0605 881.301 88.0605 881.301 88.0605C881.301 88.0605 881.301 88.0605 881.301 88.0605C881.301 88.0605 881.301 88.0605 881.301 88.0605C881.301 88.0605 881.301 88.0605 881.301 88.0605C881.301 88.0605 881.301 88.0605 881.301 88.0605C881.301 88.0605 881.301 88.0605 881.301 88.0605C881.301 88.0605 881.301 88.0605 881.301 88.0605C881.301 88.0605 881.301 88.0605 881.301 88.0605C881.301 88.0605 881.301 88.0605 881.301 88.0605C881.301 88.0605 881.301 88.0605 881.301 88.0605C881.301 88.0605 881.301 88.0605 881.301 88.0605C881.301 88.0605 881.301 88.0605 881.301 88.0605C881.301 88.0605 881.301 88.0605 881.301 88.0605C881.301 88.0605 881.301 88.0605 881.301 88.0605C881.301 88.0605 881.301 88.0605 881.301 88.0605C881.301 88.0606 881.301 88.0606 881.301 88.0606C881.301 88.0606 881.301 88.0606 881.301 88.0606C881.301 88.0606 881.301 88.0606 881.301 88.0606C881.301 88.0606 881.301 88.0606 881.301 88.0606C881.301 88.0606 881.301 88.0606 881.301 88.0606C881.301 88.0606 881.301 88.0606 881.301 88.0606C881.301 88.0606 881.301 88.0606 881.301 88.0606C881.301 88.0606 881.301 88.0606 881.301 88.0606C881.301 88.0606 881.301 88.0606 881.301 88.0606C881.301 88.0606 881.301 88.0606 881.301 88.0606C881.301 88.0606 881.301 88.0606 881.301 88.0606C881.301 88.0606 881.301 88.0606 881.301 88.0606C881.301 88.0606 881.301 88.0606 881.301 88.0606C881.301 88.0606 881.301 88.0606 881.301 88.0606C881.301 88.0606 881.301 88.0606 881.301 88.0606C881.301 88.0606 881.301 88.0606 881.301 88.0606C881.301 88.0606 881.301 88.0606 881.301 88.0606C881.301 88.0606 881.301 88.0606 881.301 88.0606C881.301 88.0606 881.301 88.0606 881.301 88.0606C881.301 88.0606 881.301 88.0606 881.301 88.0606C881.301 88.0606 881.301 88.0606 881.301 88.0606C881.301 88.0606 881.301 88.0606 881.301 88.0606C881.301 88.0606 881.301 88.0606 881.301 88.0606C881.301 88.0606 881.301 88.0606 881.301 88.0606C881.301 88.0606 881.301 88.0606 881.301 88.0606C881.301 88.0606 881.301 88.0606 881.301 88.0606C881.301 88.0606 881.301 88.0606 881.301 88.0606C881.301 88.0606 881.301 88.0606 881.301 88.0606C881.301 88.0606 881.301 88.0606 881.301 88.0606C881.301 88.0606 881.301 88.0606 881.301 88.0606C881.301 88.0606 881.301 88.0606 881.301 88.0606C881.301 88.0606 881.301 88.0606 881.301 88.0606C881.301 88.0606 881.301 88.0606 881.301 88.0606C881.301 88.0606 881.301 88.0606 881.301 88.0606C881.301 88.0606 881.301 88.0606 881.301 88.0606C881.301 88.0606 881.301 88.0606 881.301 88.0606C881.301 88.0606 881.301 88.0606 881.301 88.0606C881.301 88.0606 881.301 88.0606 881.301 88.0606C881.301 88.0606 881.301 88.0606 881.301 88.0606C881.301 88.0606 881.301 88.0606 881.301 88.0606C881.301 88.0606 881.301 88.0606 881.301 88.0606C881.301 88.0606 881.301 88.0606 881.301 88.0606C881.301 88.0606 881.301 88.0606 881.301 88.0606C881.301 88.0606 881.301 88.0606 881.301 88.0606C881.301 88.0606 881.301 88.0606 881.301 88.0606C881.301 88.0606 881.301 88.0606 881.301 88.0606C881.301 88.0606 881.301 88.0606 881.301 88.0606C881.301 88.0606 881.301 88.0606 881.301 88.0606C881.301 88.0606 881.301 88.0606 881.301 88.0606C881.301 88.0606 881.301 88.0606 881.301 88.0606C881.301 88.0606 881.301 88.0606 881.301 88.0606C881.301 88.0606 881.301 88.0606 881.301 88.0606C881.301 88.0606 881.301 88.0606 881.301 88.0606C881.301 88.0606 881.301 88.0606 881.301 88.0606C881.301 88.0606 881.301 88.0606 881.301 88.0606C881.301 88.0606 881.301 88.0606 881.301 88.0606C881.301 88.0606 881.301 88.0606 881.301 88.0606C881.301 88.0606 881.301 88.0606 881.301 88.0606C881.301 88.0606 881.301 88.0606 881.301 88.0606C881.301 88.0606 881.301 88.0606 881.301 88.0606C881.301 88.0606 881.301 88.0606 881.301 88.0606C881.301 88.0606 881.301 88.0606 881.301 88.0606C881.301 88.0606 881.301 88.0606 881.301 88.0606C881.301 88.0606 881.301 88.0606 881.301 88.0606C881.301 88.0606 881.301 88.0606 881.301 88.0606C881.301 88.0606 881.301 88.0606 881.301 88.0606C881.301 88.0606 881.301 88.0606 881.301 88.0606C881.301 88.0606 881.301 88.0606 881.301 88.0606C881.301 88.0606 881.301 88.0606 881.301 88.0606C881.301 88.0606 881.301 88.0606 881.301 88.0606C881.301 88.0606 881.301 88.0606 881.301 88.0606C881.301 88.0606 881.301 88.0606 881.301 88.0606C881.301 88.0606 881.301 88.0606 881.301 88.0606C881.301 88.0606 881.301 88.0606 881.301 88.0606C881.301 88.0606 881.301 88.0606 881.301 88.0606C881.301 88.0606 881.301 88.0606 881.301 88.0606C881.301 88.0606 881.301 88.0606 881.301 88.0606C881.301 88.0606 881.301 88.0606 881.301 88.0606C881.301 88.0606 881.301 88.0606 881.301 88.0606C881.301 88.0606 881.301 88.0606 881.301 88.0606C881.301 88.0606 881.301 88.0606 881.301 88.0606C881.301 88.0606 881.301 88.0606 881.301 88.0606C881.301 88.0607 881.301 88.0607 881.301 88.0607C881.301 88.0607 881.301 88.0607 881.301 88.0607C881.301 88.0607 881.301 88.0607 881.301 88.0607C881.301 88.0607 881.301 88.0607 881.301 88.0607C881.301 88.0607 881.301 88.0607 881.301 88.0607C881.301 88.0607 881.301 88.0607 881.301 88.0607C881.301 88.0607 881.301 88.0607 881.301 88.0607C881.301 88.0607 881.301 88.0607 881.301 88.0607C881.301 88.0607 881.301 88.0607 881.301 88.0607C881.301 88.0607 881.301 88.0607 881.301 88.0607C881.301 88.0607 881.301 88.0607 881.301 88.0607C881.301 88.0607 881.301 88.0607 881.301 88.0607C881.301 88.0607 881.301 88.0607 881.301 88.0607C881.301 88.0607 881.301 88.0607 881.301 88.0607C881.301 88.0607 881.301 88.0607 881.301 88.0607C881.301 88.0607 881.301 88.0607 881.301 88.0607C881.301 88.0607 881.301 88.0607 881.301 88.0607C881.301 88.0607 881.301 88.0607 881.301 88.0607C881.301 88.0607 881.301 88.0607 881.301 88.0607C881.301 88.0607 881.301 88.0607 881.301 88.0607C881.301 88.0607 881.301 88.0607 881.301 88.0607C881.301 88.0607 881.301 88.0607 881.301 88.0607C881.301 88.0607 881.301 88.0607 881.301 88.0607C881.301 88.0607 881.301 88.0607 881.301 88.0607C881.301 88.0607 881.301 88.0607 881.301 88.0607C881.301 88.0607 881.301 88.0607 881.301 88.0607C881.301 88.0607 881.301 88.0607 881.301 88.0607C881.301 88.0607 881.301 88.0607 881.301 88.0607C881.301 88.0607 881.301 88.0607 881.301 88.0607C881.301 88.0607 881.301 88.0607 881.301 88.0607C881.301 88.0607 881.301 88.0607 881.301 88.0607C881.301 88.0607 881.301 88.0607 881.301 88.0607C881.301 88.0607 881.301 88.0607 881.301 88.0607C881.301 88.0607 881.301 88.0607 881.301 88.0607C881.301 88.0607 881.301 88.0607 881.301 88.0607C881.301 88.0607 881.301 88.0607 881.301 88.0607C881.301 88.0607 881.301 88.0607 881.301 88.0607C881.301 88.0607 881.301 88.0607 881.301 88.0607C881.301 88.0607 881.301 88.0607 881.301 88.0607C881.301 88.0607 881.301 88.0607 881.301 88.0607C881.301 88.0607 881.301 88.0607 881.301 88.0607C881.301 88.0607 881.301 88.0607 881.301 88.0607C881.301 88.0607 881.301 88.0607 881.301 88.0607C881.301 88.0607 881.301 88.0607 881.301 88.0607C881.301 88.0607 881.301 88.0607 881.301 88.0607C881.301 88.0607 881.301 88.0607 881.301 88.0607C881.301 88.0607 881.301 88.0607 881.301 88.0607C881.301 88.0607 881.301 88.0607 881.301 88.0607C881.301 88.0607 881.301 88.0607 881.301 88.0607C881.301 88.0607 881.301 88.0607 881.301 88.0607C881.301 88.0607 881.301 88.0607 881.301 88.0607C881.301 88.0607 881.301 88.0607 881.301 88.0607C881.301 88.0607 881.301 88.0607 881.301 88.0607C881.301 88.0607 881.301 88.0607 881.301 88.0607C881.301 88.0607 881.301 88.0607 881.301 88.0607C881.301 88.0607 881.301 88.0607 881.301 88.0607C881.301 88.0607 881.301 88.0607 881.301 88.0607C881.301 88.0607 881.301 88.0607 881.301 88.0607C881.301 88.0607 881.301 88.0607 881.301 88.0607C881.301 88.0607 881.301 88.0607 881.301 88.0607C881.301 88.0607 881.301 88.0607 881.301 88.0607C881.301 88.0607 881.301 88.0607 881.301 88.0607C881.301 88.0607 881.301 88.0607 881.301 88.0607C881.301 88.0607 881.301 88.0607 881.301 88.0607C881.301 88.0607 881.301 88.0607 881.301 88.0607C881.301 88.0607 881.301 88.0607 881.301 88.0607H882.301ZM15.3913 88.0607V89.0607H882.301V88.0607V87.0607H15.3913V88.0607ZM15.3913 88.0601H14.3913V88.0607H15.3913H16.3913V88.0601H15.3913ZM0.763999 75.6195V76.6195C8.4481 76.6195 14.3913 81.8874 14.3913 88.0601H15.3913H16.3913C16.3913 80.4914 9.23675 74.6195 0.763999 74.6195V75.6195ZM0.763672 75.6195V76.6195H0.763999V75.6195V74.6195H0.763672V75.6195ZM0.763672 13.4165H-0.236328V75.6195H0.763672H1.76367V13.4165H0.763672ZM0.763999 13.4165V12.4165H0.763672V13.4165V14.4165H0.763999V13.4165ZM15.3913 0.976562L14.3913 0.976504C14.3909 7.14901 8.44786 12.4165 0.763999 12.4165V13.4165V14.4165C9.2365 14.4165 16.3908 8.54504 16.3913 0.976621L15.3913 0.976562Z" fill="#AD9255" mask="url(#path-1-inside-1_627_9222)"/>
</svg>
